<svg xmlns="http://www.w3.org/2000/svg" width="84" height="35" viewBox="0 0 84 35"><path fill="#FFF" d="M15.312 4.748c-.982 1.162-2.553 2.079-4.125 1.948-.196-1.572.573-3.241 1.474-4.273.982-1.195 2.7-2.046 4.092-2.111.164 1.637-.475 3.24-1.44 4.436zm1.425 2.259C14.46 6.876 12.513 8.3 11.433 8.3c-1.097 0-2.75-1.228-4.55-1.195-2.342.033-4.519 1.359-5.714 3.47C-1.286 14.8.531 21.052 2.904 24.49c1.162 1.702 2.554 3.568 4.387 3.503 1.736-.066 2.423-1.13 4.518-1.13 2.112 0 2.718 1.13 4.551 1.097 1.899-.033 3.094-1.702 4.256-3.405 1.326-1.931 1.866-3.814 1.9-3.912-.034-.033-3.668-1.424-3.7-5.615-.033-3.503 2.864-5.173 2.995-5.271-1.637-2.423-4.19-2.685-5.074-2.75zM29.882 2.26v25.52h3.961v-8.725h5.484c5.01 0 8.529-3.438 8.529-8.414 0-4.977-3.454-8.381-8.398-8.381h-9.576zm3.961 3.339h4.567c3.438 0 5.402 1.833 5.402 5.058 0 3.225-1.964 5.075-5.418 5.075h-4.551V5.599zm21.248 22.377c2.488 0 4.796-1.26 5.844-3.257h.082v3.061h3.667V15.077c0-3.683-2.947-6.057-7.481-6.057-4.207 0-7.318 2.407-7.432 5.713h3.568c.295-1.571 1.752-2.602 3.75-2.602 2.422 0 3.78 1.13 3.78 3.208v1.408l-4.943.294c-4.6.279-7.088 2.161-7.088 5.435 0 3.307 2.57 5.5 6.253 5.5zm1.064-3.028c-2.112 0-3.454-1.015-3.454-2.57 0-1.604 1.293-2.537 3.765-2.685l4.404-.278v1.44c0 2.39-2.03 4.093-4.715 4.093zm13.423 9.773c3.863 0 5.68-1.473 7.268-5.942l6.958-19.513h-4.027L75.11 24.342h-.082L70.364 9.266h-4.142l6.712 18.58-.36 1.129c-.606 1.915-1.588 2.652-3.34 2.652-.31 0-.916-.033-1.162-.066v3.062c.23.065 1.212.098 1.506.098z"/></svg>