<svg width="122" height="23" viewBox="0 0 122 23" xmlns="http://www.w3.org/2000/svg"><path d="M62.099 12.674h-.815c-.095.483-.187.87-.277 1.153-.087.284-.215.496-.38.638-.165.14-.399.23-.702.266-.299.034-.718.053-1.249.053-.498 0-.884-.018-1.164-.053-.277-.035-.487-.1-.628-.195a.616.616 0 0 1-.267-.417 3.725 3.725 0 0 1-.052-.701V9.532h1.667a11.074 11.074 0 0 1 1.108.072c.207.023.405.062.595.115.19.054.35.121.478.205V8.343a1.592 1.592 0 0 1-.478.196c-.19.048-.388.086-.596.115a5.15 5.15 0 0 1-.6.053c-.197.007-.365.011-.507.011h-1.667v-4.1c0-.272.039-.449.114-.531.076-.084.24-.125.488-.125h1.332c.46 0 .834.017 1.127.052.289.037.528.12.717.25.19.13.343.325.462.585.119.26.237.609.354 1.046h.657V3.199h-8.568v.398c.048.013.098.036.228.071.13.037.23.09.302.16.07.07.115.171.133.3.018.132.027.304.027.516v9.459c0 .213-.01.384-.027.515a.506.506 0 0 1-.132.3.68.68 0 0 1-.303.16c-.13.037-.18.06-.23.072v.397H62.1v-2.873zm4.969-8.04c0-.116.009-.22.026-.31a.369.369 0 0 1 .123-.211.7.7 0 0 1 .304-.117c.135-.023.321-.034.557-.034.32 0 .619.04.897.125.277.082.519.227.727.433.207.208.367.484.48.825.111.343.166.775.166 1.296 0 1.041-.15 1.843-.45 2.405-.303.56-.832.841-1.588.841h-1.242V4.635zm.69 10.516c-.049-.012-.1-.035-.23-.071a.671.671 0 0 1-.301-.16.51.51 0 0 1-.133-.301 4.056 4.056 0 0 1-.026-.515V10.65h1.224c.639 0 1.247-.048 1.828-.142a4.12 4.12 0 0 0 1.533-.56 2.95 2.95 0 0 0 1.057-1.18c.26-.507.39-1.181.39-2.02.001-.806-.124-1.445-.371-1.918a2.614 2.614 0 0 0-1.004-1.073 3.763 3.763 0 0 0-1.446-.461 14.304 14.304 0 0 0-1.685-.098h-4.878v.398c.048.013.099.036.228.071.131.037.231.09.302.16.072.07.115.171.134.3a4.3 4.3 0 0 1 .026.516v9.459c0 .213-.01.384-.026.515a.504.504 0 0 1-.134.3.657.657 0 0 1-.302.16c-.13.037-.18.06-.229.072v.397h4.043v-.397zm-35.58-.996c.479.538 1.085.95 1.82 1.234.732.284 1.607.424 2.625.424.508 0 .976-.034 1.4-.106.425-.07.814-.162 1.164-.274.347-.113.658-.234.93-.363.273-.13.509-.255.71-.373l-.391-.763-.62.275a5.142 5.142 0 0 1-1.437.408 7.376 7.376 0 0 1-1.03.062c-.756 0-1.374-.142-1.854-.425a3.03 3.03 0 0 1-1.125-1.17c-.273-.498-.46-1.083-.559-1.759a14.815 14.815 0 0 1-.152-2.2c0-.613.03-1.238.09-1.871.057-.632.2-1.2.424-1.704.225-.502.556-.914.995-1.233.437-.32 1.035-.477 1.79-.477.688 0 1.281.185 1.784.558.504.372.813.937.933 1.693h.779V3.624a4.398 4.398 0 0 0-.789-.274 7.52 7.52 0 0 0-.949-.178 21.59 21.59 0 0 0-.976-.098c-.32-.023-.61-.035-.869-.035-1.09 0-2.017.148-2.787.444-.768.296-1.397.724-1.889 1.286-.49.561-.852 1.248-1.08 2.058-.232.81-.349 1.73-.349 2.759 0 .97.117 1.839.348 2.608.229.77.585 1.422 1.063 1.96zm-1.41 5.77h90.36v-1.213h-90.36v1.214zm47.477-5.201a.77.77 0 0 1-.382-.205.687.687 0 0 1-.168-.371 4.02 4.02 0 0 1-.036-.586V8.397h1.064c.96 0 1.636.246 2.032.736.395.492.595 1.293.595 2.405 0 .733-.068 1.313-.205 1.738-.135.426-.316.751-.54.977-.224.223-.482.37-.772.434-.29.065-.588.097-.896.097-.296 0-.526-.02-.692-.061zm2.619.717a4.247 4.247 0 0 0 1.658-.522c.485-.278.875-.693 1.17-1.242.296-.552.444-1.305.444-2.263 0-.686-.098-1.27-.293-1.747a2.584 2.584 0 0 0-.94-1.17c-.431-.303-.994-.52-1.686-.659-.692-.134-1.534-.202-2.528-.202h-1.03V4.69c0-.32.065-.521.195-.603.131-.084.403-.125.817-.125h1.49c.461 0 .837.017 1.127.052.29.037.528.12.72.25.188.13.342.325.46.585.118.26.236.609.354 1.046h.657V3.199h-9.153v.398c.048.013.099.036.228.071.13.037.231.09.302.16.072.07.116.171.134.3.017.132.027.304.027.516v9.459c0 .213-.01.384-.027.515a.494.494 0 0 1-.134.3.663.663 0 0 1-.302.16c-.129.037-.18.06-.228.072v.397h4.646c.64 0 1.27-.034 1.892-.107zM45.333 8.397h1.066c.957 0 1.635.246 2.03.736.397.492.595 1.293.595 2.405 0 .733-.069 1.313-.204 1.738-.136.426-.316.751-.54.977a1.56 1.56 0 0 1-.773.434 4.03 4.03 0 0 1-.896.097c-.296 0-.526-.02-.692-.061a.773.773 0 0 1-.381-.205.69.69 0 0 1-.17-.371 3.978 3.978 0 0 1-.035-.586V8.397zm-2.643 3.24v2.484c0 .203-.01.37-.026.497a.505.505 0 0 1-.133.3.67.67 0 0 1-.303.16c-.128.037-.18.06-.229.072v.397h4.647c.638 0 1.268-.034 1.888-.107a4.224 4.224 0 0 0 1.66-.522c.487-.278.876-.693 1.172-1.242.296-.552.445-1.305.445-2.263 0-.686-.098-1.27-.294-1.747-.196-.48-.51-.87-.94-1.17-.432-.303-.995-.52-1.685-.659-.692-.134-1.536-.202-2.529-.202h-1.03V4.69c0-.32.065-.521.197-.603.13-.084.4-.125.815-.125h1.49c.462 0 .836.017 1.126.052.29.037.53.12.72.25.19.13.341.325.461.585.119.26.237.609.355 1.046h.657V3.199H42v.398c.049.013.098.036.228.071.13.037.23.09.302.16.072.07.115.171.134.3.016.128.026.294.026.498V7.11h.001v4.528-.001zm67.483 2.981a.501.501 0 0 1-.134.3.668.668 0 0 1-.303.16c-.13.037-.179.06-.228.072v.397h4.026v-.397c-.05-.012-.099-.035-.228-.071a.65.65 0 0 1-.302-.16.488.488 0 0 1-.134-.301 4.047 4.047 0 0 1-.026-.515V4.644c0-.212.008-.384.026-.515a.496.496 0 0 1 .134-.3c.07-.071.17-.124.302-.16.128-.036.179-.06.228-.072V3.2h-4.026v.398c.05.013.099.036.228.071.131.037.231.09.303.16.071.07.116.171.134.3a4.3 4.3 0 0 1 .025.516v9.459c0 .213-.01.384-.025.515zm3.69-3.738c.242.332.473.648.691.95l.639.888c.207.29.422.594.647.914.237.33.447.656.63.974.183.32.352.633.507.941l4.169.036a70.56 70.56 0 0 1-2.29-2.468c-.379-.424-.733-.826-1.064-1.205a34.89 34.89 0 0 1-.94-1.119 20.698 20.698 0 0 1-1.634-2.306l.197-.248c.294-.377.645-.812 1.047-1.304.4-.49.815-.976 1.24-1.454.427-.479.853-.922 1.278-1.331.427-.408.81-.718 1.154-.931v-.018h-2.891c-.095.248-.24.553-.436.914-.195.36-.424.748-.682 1.162-.261.413-.532.844-.818 1.286-.282.443-.566.866-.851 1.268l-.789 1.119c-.242.342-.446.619-.612.834.297.401.564.768.807 1.098zM100.6 15.15c-.049-.012-.1-.035-.23-.071a.673.673 0 0 1-.302-.16.5.5 0 0 1-.133-.301 3.803 3.803 0 0 1-.027-.515V9.407h4.773v4.696a4.3 4.3 0 0 1-.025.515.509.509 0 0 1-.135.3.67.67 0 0 1-.302.16c-.13.037-.18.06-.228.072v.397h4.025v-.397c-.049-.012-.099-.035-.23-.071a.671.671 0 0 1-.301-.16.503.503 0 0 1-.133-.301 4.047 4.047 0 0 1-.026-.515v-2.466l-.018.054V7.057l.018.053V4.644c0-.212.008-.384.026-.515a.509.509 0 0 1 .133-.3.686.686 0 0 1 .302-.16c.13-.036.18-.06.23-.072V3.2h-4.026v.398c.048.013.099.036.228.071.13.037.231.09.302.16.071.07.115.171.135.3.016.132.025.304.025.516v3.949h-4.773V4.644c0-.212.009-.384.027-.515a.508.508 0 0 1 .133-.3.688.688 0 0 1 .303-.16c.13-.036.18-.06.228-.072V3.2h-4.025v.398c.048.013.099.036.23.071.13.037.23.09.3.16.072.07.115.171.134.3.017.127.026.292.026.495v9.502c0 .203-.01.367-.026.493a.506.506 0 0 1-.133.3.665.665 0 0 1-.302.16c-.13.037-.18.06-.23.072v.397h4.027v-.397zM89.565 5.274l1.667 4.986h-3.371l1.704-4.986zm-2.849 8.756c.16-.714.447-1.7.862-2.954h3.92l.533 1.58c.235.708.426 1.307.566 1.791.143.484.226.851.25 1.1h3.14a24.568 24.568 0 0 1-.487-1.002c-.195-.42-.43-1.008-.7-1.766L91.977 4.69a5.863 5.863 0 0 1-.258-.897c-.042-.231-.074-.43-.099-.594h-3.528v.398c.049.013.099.036.23.071.13.037.23.09.3.16.071.07.116.171.135.3.01.076.017.168.021.271a2.42 2.42 0 0 1-.155.805l-1.97 4.878c-.366.912-.68 1.675-.94 2.29-.26.614-.482 1.13-.664 1.542a13.63 13.63 0 0 1-.845 1.633h2.237c.024-.296.117-.8.274-1.517zM19.28 1.12c-.4-.266-.728-.403-1.161-.62L8.474 5.843l-.003.005-.003-.002L3.81 3.198c-.255.29-.496.562-.722.875l5.386 3.034L19.28 1.12zM8.272 14.115l-.002.004-.004-.001L.901 9.97c-.029.339-.047.68-.047 1.028 0 6.55 5.31 11.86 11.86 11.86 6.551 0 11.861-5.31 11.861-11.86 0-1.882-.44-3.66-1.22-5.24L8.273 14.115zM22.71 4.616c-.2-.312-.414-.615-.642-.907L8.335 11.317l-.003.005-.003-.002-6.925-3.9c-.12.378-.22.764-.302 1.157l7.17 4.038L22.71 4.616zm-1.525-1.918a11.869 11.869 0 0 0-.762-.71L8.475 8.606l-.003.004-.003-.002L2.38 5.18c-.182.324-.35.658-.502 1l6.457 3.637 12.85-7.119z" fill="#fff" fill-rule="evenodd"/></svg>