<svg xmlns="http://www.w3.org/2000/svg" width="117" height="25" viewBox="0 0 117 25"><path d="M5.915 10.451c-1.091 3.027-1.581 6.213-2.367 9.326.855-1.083 1.602-2.252 2.576-3.241-.108 1.78-.685 3.485-.977 5.237 1.217-1.406 2.194-3.002 3.512-4.327 3.105-3.334 7.263-5.506 11.551-7 1.387-.51 2.872-.804 4.153-1.569-2.273-.296-4.557.074-6.832-.08 1.649-.995 3.626-1.217 5.342-2.075-6.606-.787-13.504.65-19.949-1.522.81 1.85 2.24 3.4 2.991 5.251zM10.268.445C15.172-.528 20.517 1.66 23.151 5.87c2.303 3.518 2.56 8.229.643 11.966-1.754 3.562-5.363 6.173-9.36 6.688-4.422.683-9.092-1.294-11.727-4.834C.003 16.147-.476 11.11 1.515 7.137c1.646-3.414 4.977-5.989 8.753-6.69M71.13 20.02c.755-1.21 2.328-1.374 3.635-1.388 3.779.017 7.558.143 11.337.162-.599 1.434-.98 2.972-1.81 4.302-.774 1.207-2.356 1.382-3.679 1.388-3.77.003-7.544.016-11.318-.011.563-1.5.98-3.082 1.835-4.453m3.93-9.033c.871-1.204 2.534-1.223 3.89-1.247 3.646.057 7.297.118 10.942.186-.56 1.448-.955 2.986-1.796 4.31-.758 1.16-2.278 1.347-3.562 1.36-3.812.015-7.628.004-11.443 0 .624-1.543 1.022-3.21 1.969-4.609M97.305.283c2.25.009 4.497-.002 6.747.009-1.236 3.159-2.698 6.232-3.807 9.438 3.598-1.818 4.835-6.222 8.035-8.545 2.581-1.538 5.734-.685 8.583-.888-3.64 4.187-6.874 9.016-12 11.582.67.776 1.673 1.306 1.977 2.35 1.242 3.299 1.526 6.85 2.133 10.297-2.08.008-4.826.885-6.372-.924-1.295-2.57-.693-5.734-2.23-8.232-.455-.768-1.415-.85-2.212-.987a1441.273 1441.273 0 0 0-4.23 10.019c-2.317.03-4.636.03-6.956.03C90.384 16.368 93.899 8.348 97.305.283M78.885 1.6C79.598.484 81.046.272 82.277.28c3.84.014 7.681-.005 11.521.014-.601 1.514-.983 3.143-1.896 4.514-.822 1.21-2.443 1.278-3.77 1.297-3.71-.006-7.42.01-11.127-.014.602-1.503 1.003-3.11 1.88-4.491M58.007.278c3.927.052 8.004-.274 11.75 1.127 1.645.598 3.121 1.895 3.453 3.65.623 3.049-.435 6.106-1.477 8.944-1.525 4.185-4.7 7.985-9.062 9.471-4.812 1.783-10.023 1.215-15.035.966.955-1.95 1.37-5.087 4.024-5.388 3.23-.042 6.72.62 9.694-.993 2.092-1.522 3.37-3.875 4.339-6.197.58-1.59 1.15-3.414.496-5.062-.738-1.138-2.279-1.212-3.476-1.533-1.261 2.992-2.554 5.967-3.932 8.906-.552 1.19-1.482 2.353-2.85 2.627-1.648.307-3.324-.022-4.981-.087 2.32-5.49 4.679-10.966 7.057-16.431m-18.069 2.44C44.453.396 49.725.078 54.721.377c-.56 1.412-.9 2.942-1.758 4.214-1.063 1.303-2.943.889-4.42 1.168-2.043.376-4.469.381-5.928 2.073-1.986 2.23-3.334 5.005-3.974 7.895-.256 1.201-.262 2.9 1.122 3.427 2.125.713 4.422.664 6.63.922-.584 2.122-2.082 4.285-4.483 4.532-2.682.16-5.597.209-8.029-1.075-2.4-1.428-2.537-4.579-2.127-7.017 1.01-5.286 3.194-10.99 8.184-13.798" fill="#FFF"/></svg>