<svg xmlns="http://www.w3.org/2000/svg" width="82" height="53" viewBox="0 0 82 53">
  <g fill="none">
    <path fill="#FFFFFF" d="M4.13957574,1.41033862 C2.44284463,1.41033862 1.0673723,2.78581095 1.0673723,4.48254205 L1.0673723,48.517458 C1.0673723,50.214189 2.44284463,51.5896615 4.13957574,51.5896615 L77.3604245,51.5896615 C79.0571555,51.5896615 80.4326275,50.214189 80.4326275,48.517458 L80.4326275,4.48254205 C80.4326275,2.78581095 79.0571555,1.41033862 77.3604245,1.41033862 L4.13957574,1.41033862 Z"/>
    <path fill="#191818" d="M5,0 L76.5,0 C79.2614235,0 81.5,2.23857625 81.5,5 L81.5,48 C81.5,50.7614235 79.2614235,53 76.5,53 L5,53 C2.23857625,53 0,50.7614235 0,48 L0,5 C0,2.23857625 2.23857625,0 5,0 Z M5,2 C3.34314575,2 2,3.34314575 2,5 L2,48 C2,49.6568543 3.34314575,51 5,51 L76.5,51 C78.156854,51 79.5,49.6568543 79.5,48 L79.5,5 C79.5,3.34314575 78.156854,2 76.5,2 L5,2 Z"/>
    <path fill="#191818" d="M32.7094726 16.8852539L39.6064453 16.8852539C43.0488281 16.8852539 45.4169922 19.265625 45.4169922 22.756836 45.4169922 26.1992188 42.9755859 28.5673828 39.5209961 28.5673828L35.4438476 28.5673828 35.4438476 34.5 32.7094726 34.5 32.7094726 16.8852539zM35.4438476 19.3022461L35.4438476 26.1625977 38.8862304 26.1625977C41.2421875 26.1625977 42.621582 24.9418946 42.621582 22.756836 42.621582 20.5229492 41.2910156 19.3022461 38.8862304 19.3022461L35.4438476 19.3022461zM51.3848635 32.5102539C53.3624025 32.5102539 54.827246 31.2529297 54.827246 29.6049805L54.827246 28.4941406 51.580176 28.7016602C49.7491211 28.8237305 48.9190429 29.4462891 48.9190429 30.6181641 48.9190429 31.8144531 49.9566406 32.5102539 51.3848635 32.5102539zM50.7134765 34.7197266C48.15 34.7197266 46.2823242 33.1694336 46.2823242 30.7402344 46.2823242 28.3476563 48.0645508 26.9682617 51.226172 26.7729492L54.827246 26.5654297 54.827246 25.4179688C54.827246 24.0141602 53.8995115 23.2207031 52.105078 23.2207031 50.6402345 23.2207031 49.6270508 23.7578125 49.334082 24.6977539L46.7950195 24.6977539C47.0635742 22.4150391 49.2120117 20.9501953 52.2271485 20.9501953 55.559668 20.9501953 57.439551 22.6103516 57.439551 25.4179688L57.439551 34.5 54.9126955 34.5 54.9126955 32.6323242 54.705176 32.6323242C53.911719 33.9628906 52.459082 34.7197266 50.7134765 34.7197266zM60.9538085 39.3217774C60.734082 39.3217774 60.1115235 39.2973633 59.867383 39.2607422L59.867383 37.0024414C60.0749025 37.0390625 60.4777345 37.0512696 60.721875 37.0512696 61.966992 37.0512696 62.675 36.5385742 63.12666 35.1958008L63.3219725 34.5488281 58.5124025 21.206543 61.3688475 21.206543 64.701367 31.765625 64.9088865 31.765625 68.229199 21.206543 71.0124025 21.206543 66.0563475 35.0493164C64.921094 38.2841797 63.6637695 39.3217774 60.9538085 39.3217774zM25.1893004 25.7922904C25.1800956 24.0940669 25.9440999 22.8123014 27.4905184 21.8683297 26.6252604 20.6235828 25.3181686 19.9387405 23.5922551 19.8045485 21.9583903 19.6749837 20.1726452 20.7624021 19.5190993 20.7624021 18.8287338 20.7624021 17.2454959 19.8508216 16.0028381 19.8508216 13.4346788 19.8924674 10.7054342 21.9099755 10.7054342 26.0144015 10.7054342 27.2267572 10.9263512 28.4807589 11.368185 29.771779 11.9572969 31.4700025 14.0836223 35.6345835 16.3019965 35.5651738 17.4618104 35.5374099 18.281044 34.7368849 19.7906429 34.7368849 21.2542176 34.7368849 22.0136196 35.5651738 23.306904 35.5651738 25.543688 35.5327826 27.4675062 31.7476413 28.0290035 30.0447904 25.0282152 28.6242055 25.1893004 25.8802094 25.1893004 25.7922904zM22.6227692 18.2099499C23.8961792 16.7223306 23.7795665 15.3678624 23.7422506 14.8811722 22.6181047 14.945452 21.3167077 15.6341647 20.5750513 16.4835769 19.7587629 17.3926776 19.2783188 18.517575 19.3809379 19.7848062 20.5983739 19.8766345 21.7085262 19.2613846 22.6227692 18.2099499z"/>
  </g>
</svg>
